# xmcd CD database file
#
# Track frame offsets:
#	150
#	13075
#	26848
#	40405
#	53950
#	67539
#	81670
#	95113
#	110057
#	124413
#	137962
#	151087
#	165093
#	177155
#	191388
#	204730
#	218247
#	229720
#	244820
#	257210
#	271210
#
# Disc length: 3780 seconds
#
# Revision: 0
# Processed by: cddbd v1.5.2PL0 Copyright (c) Steve Scherf et al.
# Submitted via: CDex 1.70beta2
#
DISCID=2f0ec215
DTITLE=Thelonius Monk - Bebop Story Vol 1 1947-48 CD 048
DYEAR=2008
DGENRE=Jazz
TTITLE0=Humph
TTITLE1=Evonce
TTITLE2=Suburban Eyes
TTITLE3=Thelonius
TTITLE4=Nice Work If You Can Get It
TTITLE5=Ruby My Dear
TTITLE6=Well You Needn't
TTITLE7=April In Paris
TTITLE8=Introspection
TTITLE9=Off Minor
TTITLE10=In Walked Bud
TTITLE11=Monk's Mood
TTITLE12=Who Knows
TTITLE13='Round Midnight
TTITLE14=All The Things You Are
TTITLE15=I Should Care
TTITLE16=Evidence
TTITLE17=Misterioso
TTITLE18=Misterioso
TTITLE19=Epistrophy
TTITLE20=I Mean You
EXTD=YEAR: 2008
EXTT0=
EXTT1=
EXTT2=
EXTT3=
EXTT4=
EXTT5=
EXTT6=
EXTT7=
EXTT8=
EXTT9=
EXTT10=
EXTT11=
EXTT12=
EXTT13=
EXTT14=
EXTT15=
EXTT16=
EXTT17=
EXTT18=
EXTT19=
EXTT20=
PLAYORDER=
